<svg width="34" height="18" viewBox="0 0 34 18" fill="none" xmlns="http://www.w3.org/2000/svg">
<path d="M20.3472 17.0288C21.1295 17.0306 21.8732 17.038 22.5783 17.0511C23.3965 17.0662 24.0585 17.0814 24.5643 17.0966V16.5736C23.88 16.5736 23.3593 16.5282 23.0023 16.4372C22.6452 16.3463 22.3998 16.1493 22.2659 15.8461C22.1469 15.5278 22.0874 15.0655 22.0874 14.4593V9.23016H22.3105C22.8755 9.2303 23.3744 9.36671 23.8056 9.6394C24.237 9.89706 24.5866 10.2532 24.8544 10.708C25.137 11.1627 25.323 11.6704 25.4122 12.2312H25.9255C25.866 11.3673 25.8288 10.708 25.8139 10.2532C25.799 9.79854 25.7916 9.38173 25.7916 9.00281C25.7916 8.62389 25.7841 8.20708 25.7693 7.75237C25.7693 7.29767 25.799 6.63834 25.8585 5.7744H25.3453C25.2858 6.10785 25.1668 6.44888 24.9883 6.79749C24.8246 7.1461 24.6089 7.47197 24.3411 7.77511C24.0882 8.07824 23.7907 8.32075 23.4485 8.50263C23.1064 8.68452 22.727 8.77546 22.3105 8.77546H22.0874V2.95523C22.0874 2.53084 22.1171 2.22013 22.1766 2.02309C22.251 1.82605 22.3849 1.69721 22.5783 1.63659C22.7717 1.5608 23.0618 1.52291 23.4486 1.52291L23.7386 1.52291C24.2742 1.52291 24.8023 1.67448 25.323 1.97762C25.8585 2.2656 26.3495 2.77335 26.7957 3.50088C27.242 4.21325 27.5916 5.19844 27.8445 6.45646H28.3578C28.3429 6.25942 28.328 6.01691 28.3131 5.72893C28.2983 5.44095 28.2908 5.13782 28.2908 4.81952C28.2908 4.4406 28.2983 3.90254 28.3131 3.20532C28.3429 2.49295 28.3875 1.75784 28.447 1C27.7627 1.03032 26.9817 1.05305 26.104 1.06821L20.2352 1.06821C19.5212 1.05305 18.7922 1.04547 18.0484 1.04547C17.3195 1.03031 16.6277 1.01516 15.9732 1V1.4547C16.4194 1.46986 16.7542 1.53049 16.9773 1.63659C17.2153 1.72753 17.3715 1.90941 17.4459 2.18223C17.5203 2.4399 17.5575 2.84913 17.5575 3.40994L17.5575 9.77331L20.3472 17.0288Z" fill="white"/>
<path d="M10.3498 1L15.75 15.1868C15.9582 15.7021 16.1814 16.0735 16.4194 16.3008C16.6574 16.513 16.8731 16.6267 17.0665 16.6419V17.0966C16.531 17.0662 15.9062 17.0511 15.1921 17.0511C14.478 17.0359 13.7491 17.0284 13.0053 17.0284C12.2466 17.0284 11.5325 17.0359 10.8631 17.0511C10.1936 17.0511 9.65807 17.0662 9.2564 17.0966V16.6419C10.0151 16.6115 10.4911 16.4827 10.6845 16.2554C10.8928 16.0128 10.8482 15.5051 10.5507 14.7321L6.98032 4.66038L7.42661 3.86464L4.34719 12.0266C3.97528 13.0118 3.7447 13.8075 3.65544 14.4138C3.58106 15.0049 3.61825 15.4596 3.76701 15.7779C3.91578 16.0962 4.1538 16.316 4.48108 16.4372C4.80836 16.5585 5.19515 16.6267 5.64144 16.6419V17.0966C5.09101 17.0662 4.59265 17.0511 4.14636 17.0511C3.71494 17.0359 3.2389 17.0284 2.71823 17.0284C2.43557 17.0284 2.13061 17.0359 1.80333 17.0511C1.49092 17.0511 1.22315 17.0662 1 17.0966V16.6419C1.34216 16.5812 1.67688 16.3615 2.00416 15.9825C2.34631 15.5885 2.69591 14.9216 3.05294 13.9818L8.00679 1C8.36383 1.03031 8.75061 1.04547 9.16715 1.04547C9.59857 1.04547 9.99279 1.03031 10.3498 1ZM11.1308 10.5488V11.0035L4.48108 11.0035L4.70423 10.5488L11.1308 10.5488Z" fill="white"/>
<path d="M31.614 14C32.0709 14 32.4541 14.1479 32.7636 14.4438C33.0731 14.7249 33.2279 15.08 33.2279 15.5091C33.2279 15.9381 33.0731 16.3006 32.7636 16.5965C32.4541 16.8776 32.0709 17.0181 31.614 17.0181C31.157 17.0181 30.7738 16.8776 30.4643 16.5965C30.1548 16.3006 30 15.9381 30 15.5091C30 15.08 30.1548 14.7249 30.4643 14.4438C30.7738 14.1479 31.157 14 31.614 14Z" fill="white"/>
</svg>
