<svg width="182" height="17" viewBox="0 0 182 17" fill="none" xmlns="http://www.w3.org/2000/svg">
<g clip-path="url(#clip0_523_655)">
<path d="M39.5497 12.9577C39.0819 13.615 38.8147 14.1449 38.7478 14.5473C38.681 14.9363 38.7813 15.2247 39.0485 15.4125C39.3158 15.5868 39.7234 15.6807 40.2713 15.6941L40.1711 16.0966C39.7301 16.0697 39.3091 16.0563 38.9082 16.0563C38.5073 16.0429 38.1264 16.0362 37.7656 16.0362C37.4449 16.0362 37.1776 16.0429 36.9638 16.0563C36.7366 16.0563 36.5161 16.0697 36.3023 16.0966L36.4025 15.6941C36.603 15.6405 36.8101 15.5466 37.0239 15.4125C37.2244 15.2783 37.4516 15.0838 37.7055 14.829C37.946 14.5741 38.2066 14.2387 38.4873 13.8229L47.0467 1.7505C47.1402 1.7505 47.2271 1.7505 47.3073 1.7505C47.4008 1.7505 47.4943 1.7505 47.5879 1.7505L48.3897 14.4064C48.4298 14.8893 48.5501 15.2247 48.7505 15.4125C48.9643 15.5868 49.1715 15.6807 49.3719 15.6941L49.2917 16.0966C48.9977 16.0697 48.6236 16.0563 48.1692 16.0563C47.7148 16.0429 47.2805 16.0362 46.8663 16.0362C46.3451 16.0362 45.8506 16.0429 45.3829 16.0563C44.9152 16.0563 44.541 16.0697 44.2603 16.0966L44.3405 15.6941C44.982 15.6673 45.4363 15.5533 45.7036 15.3521C45.9709 15.1375 46.0912 14.6881 46.0644 14.004L45.5433 4.28571L45.864 4.02414L39.5497 12.9577ZM41.2535 10.3018L47.1068 10.3018L46.9464 10.7042L40.8927 10.7042L41.2535 10.3018Z" fill="white"/>
<path d="M53.5157 16.0966H51.4109L53.8164 7.44466C53.9367 7.01542 53.9767 6.71361 53.9367 6.53923C53.8966 6.36485 53.7696 6.27766 53.5558 6.27766C53.2885 6.27766 53.0413 6.41851 52.8141 6.7002C52.5869 6.98189 52.3464 7.47149 52.0925 8.16901L51.7918 9.01408H51.4109L51.9121 7.52514C52.1125 6.97518 52.3531 6.55264 52.6337 6.25754C52.9143 5.96244 53.2083 5.75452 53.5157 5.6338C53.8364 5.51307 54.1505 5.45271 54.4578 5.45271C54.8721 5.45271 55.1728 5.5399 55.3599 5.71428C55.547 5.88866 55.6606 6.1167 55.7007 6.39839C55.7408 6.68008 55.7341 6.98859 55.6806 7.32394C55.6405 7.64587 55.5804 7.96109 55.5002 8.26961L53.5157 16.0966ZM58.6473 5.93561C58.3533 5.93561 58.046 6.06304 57.7253 6.3179C57.4045 6.55935 57.0771 6.92823 56.743 7.42454C56.4089 7.92085 56.0682 8.54459 55.7207 9.29577C55.3866 10.0469 55.0458 10.9255 54.6984 11.9316C54.3643 12.9242 54.0302 14.051 53.6961 15.3119L54.1772 12.6962C54.6048 11.328 55.0057 10.1811 55.3799 9.25553C55.7541 8.32997 56.1216 7.59221 56.4824 7.04225C56.8566 6.47887 57.2375 6.07646 57.625 5.83501C58.0259 5.58014 58.4536 5.45271 58.9079 5.45271C59.3356 5.45271 59.663 5.58014 59.8902 5.83501C60.1307 6.07646 60.251 6.38497 60.251 6.76056C60.251 7.06908 60.1775 7.35077 60.0305 7.60563C59.8835 7.84708 59.6897 8.04828 59.4492 8.20925C59.222 8.3568 58.9614 8.43058 58.6674 8.43058C58.3867 8.43058 58.1596 8.3568 57.9858 8.20925C57.8121 8.04828 57.7252 7.82696 57.7252 7.54527C57.7252 7.2904 57.7787 7.06237 57.8856 6.86116C57.9925 6.65995 58.1328 6.48558 58.3066 6.33802C58.4803 6.19047 58.6741 6.08316 58.8879 6.01609C58.8612 5.98927 58.8277 5.96914 58.7877 5.95573C58.7476 5.94232 58.7008 5.93561 58.6473 5.93561Z" fill="white"/>
<path d="M67.3953 5.7344L67.3352 6.13682L60.8605 6.13682L60.9607 5.7344L67.3953 5.7344ZM62.404 14.3863C62.2971 14.8021 62.3238 15.1039 62.4842 15.2917C62.6445 15.4661 62.8583 15.5533 63.1256 15.5533C63.4196 15.5533 63.7136 15.4259 64.0076 15.171C64.3016 14.9027 64.5823 14.393 64.8495 13.6418L65.1302 12.837H65.511L65.0901 14.0644C64.8094 14.9229 64.4286 15.5265 63.9475 15.8752C63.4664 16.2106 62.9051 16.3783 62.2637 16.3783C61.689 16.3783 61.248 16.2575 60.9407 16.0161C60.6467 15.7612 60.4729 15.4125 60.4195 14.9698C60.366 14.5137 60.4195 14.004 60.5798 13.4406L63.6468 2.69618C64.0477 2.68276 64.4286 2.65594 64.7894 2.6157C65.1636 2.57545 65.5043 2.50838 65.8117 2.41449L62.404 14.3863Z" fill="white"/>
<path d="M70.2577 2.17304C70.3112 1.7438 70.4983 1.39504 70.819 1.12676C71.1397 0.858488 71.5072 0.72435 71.9215 0.72435C72.309 0.72435 72.6097 0.851781 72.8235 1.10664C73.0507 1.34809 73.1376 1.6499 73.0841 2.01208C73.0307 2.4279 72.8369 2.77666 72.5028 3.05835C72.1821 3.32663 71.8146 3.46077 71.4003 3.46077C71.0128 3.46077 70.7121 3.34004 70.4983 3.09859C70.2845 2.84373 70.2043 2.53521 70.2577 2.17304ZM69.5962 7.44466C69.8501 6.66666 69.7633 6.27766 69.3356 6.27766C69.0416 6.27766 68.781 6.43192 68.5539 6.74044C68.3267 7.03554 68.0928 7.51173 67.8523 8.16901L67.5315 9.01408H67.1507L67.6719 7.52515C67.8723 6.97518 68.1129 6.55265 68.3935 6.25754C68.6741 5.96244 68.9748 5.75453 69.2955 5.6338C69.6296 5.51308 69.9504 5.45271 70.2577 5.45271C70.6987 5.45271 71.0328 5.5399 71.26 5.71428C71.4872 5.88866 71.6275 6.1167 71.6809 6.39839C71.7344 6.68008 71.7344 6.9886 71.6809 7.32394C71.6275 7.64587 71.5473 7.9611 71.4404 8.26961L69.3156 14.3863C69.1819 14.7619 69.1419 15.0503 69.1953 15.2515C69.2488 15.4527 69.3891 15.5533 69.6163 15.5533C69.8568 15.5533 70.0907 15.4259 70.3179 15.171C70.545 14.9027 70.7989 14.3997 71.0796 13.662L71.4003 12.837H71.7812L71.26 14.3058C71.0729 14.8424 70.839 15.2582 70.5584 15.5533C70.2778 15.8484 69.9771 16.0563 69.6564 16.177C69.349 16.3112 69.035 16.3783 68.7142 16.3783C68.1396 16.3783 67.732 16.2508 67.4914 15.996C67.2643 15.7277 67.164 15.3722 67.1908 14.9296C67.2175 14.4735 67.3244 13.9772 67.5115 13.4406L69.5962 7.44466Z" fill="white"/>
<path d="M74.0181 15.7948C74.125 15.8484 74.2386 15.8954 74.3589 15.9356C74.4925 15.9624 74.6729 15.9758 74.9001 15.9758C75.448 15.9758 75.9024 15.8082 76.2632 15.4728C76.624 15.1241 76.8044 14.6345 76.8044 14.004C76.8044 13.5882 76.7176 13.1657 76.5438 12.7364C76.3835 12.3072 76.1162 11.8243 75.742 11.2877C75.4347 10.8316 75.1407 10.3823 74.86 9.93963C74.5928 9.48356 74.4591 8.95372 74.4591 8.3501C74.4591 7.7733 74.5994 7.27029 74.8801 6.84104C75.1607 6.4118 75.5483 6.07646 76.0427 5.83501C76.5505 5.58015 77.1185 5.45272 77.7466 5.45272C78.1608 5.45272 78.5684 5.50637 78.9694 5.61368C79.3836 5.70758 79.7244 5.88867 79.9917 6.15694C80.2589 6.42522 80.3926 6.81422 80.3926 7.32394C80.3926 7.47149 80.3525 7.63917 80.2723 7.82696C80.2055 8.01475 80.0986 8.17572 79.9516 8.30986C79.8046 8.44399 79.6108 8.51106 79.3703 8.51106C79.1163 8.51106 78.9025 8.41717 78.7288 8.22937C78.5551 8.04158 78.4682 7.80013 78.4682 7.50503C78.4682 7.22334 78.5217 6.96177 78.6286 6.72032C78.7355 6.46546 78.8758 6.23742 79.0495 6.03622C78.8223 5.90208 78.5217 5.83501 78.1475 5.83501C77.653 5.83501 77.2454 5.99597 76.9247 6.31791C76.6173 6.63984 76.4637 7.0892 76.4637 7.66599C76.4637 7.97451 76.5104 8.2562 76.604 8.51106C76.6975 8.75251 76.8378 9.00737 77.0249 9.27565C77.212 9.54393 77.4259 9.86586 77.6664 10.2414C78.0139 10.7914 78.2945 11.3011 78.5083 11.7706C78.7355 12.2401 78.8491 12.7297 78.8491 13.2394C78.8491 13.843 78.6887 14.3863 78.368 14.8692C78.0606 15.3387 77.6397 15.7076 77.1051 15.9758C76.5706 16.2441 75.9625 16.3783 75.281 16.3783C74.7999 16.3783 74.3322 16.3045 73.8778 16.1569C73.4368 16.0228 73.076 15.8082 72.7953 15.5131C72.5147 15.2045 72.3744 14.7887 72.3744 14.2656C72.3744 14.0241 72.4479 13.7827 72.5949 13.5412C72.7285 13.2998 72.9557 13.1791 73.2764 13.1791C73.6105 13.1791 73.8511 13.3199 73.9981 13.6016C74.1584 13.8699 74.2386 14.1851 74.2386 14.5473C74.2386 14.8155 74.2119 15.0503 74.1584 15.2515C74.105 15.4527 74.0582 15.6338 74.0181 15.7948Z" fill="white"/>
<path d="M88.3216 5.73441L88.2615 6.13682L81.7868 6.13682L81.8871 5.73441L88.3216 5.73441ZM83.3303 14.3863C83.2234 14.8021 83.2502 15.1039 83.4105 15.2917C83.5709 15.4661 83.7847 15.5533 84.052 15.5533C84.346 15.5533 84.64 15.4259 84.934 15.171C85.228 14.9027 85.5086 14.393 85.7759 13.6418L86.0565 12.837H86.4374L86.0164 14.0644C85.7358 14.9229 85.3549 15.5265 84.8738 15.8752C84.3927 16.2106 83.8315 16.3783 83.19 16.3783C82.6154 16.3783 82.1744 16.2575 81.867 16.0161C81.573 15.7612 81.3993 15.4125 81.3458 14.9698C81.2924 14.5137 81.3458 14.004 81.5062 13.4406L84.5732 2.69618C84.9741 2.68277 85.3549 2.65594 85.7157 2.6157C86.0899 2.57546 86.4307 2.50839 86.7381 2.41449L83.3303 14.3863Z" fill="white"/>
<path d="M96.7548 9.29577L96.8551 8.89336L100.904 8.89336L100.824 9.29577L96.7548 9.29577ZM103.971 6.07646C104.118 5.1375 104.165 4.39974 104.112 3.86319C104.058 3.31322 103.858 2.91751 103.51 2.67606C103.163 2.43461 102.595 2.31389 101.806 2.31389L100.944 2.31389C100.503 2.31389 100.163 2.35413 99.922 2.43462C99.6815 2.50168 99.4877 2.65594 99.3407 2.89739C99.2071 3.12543 99.0734 3.4876 98.9398 3.98391L96.2737 13.9638C96.1401 14.4467 96.0933 14.8088 96.1334 15.0503C96.1735 15.2917 96.3272 15.4527 96.5945 15.5332C96.8751 15.6137 97.2894 15.6673 97.8373 15.6942L97.7571 16.0966C97.3829 16.0697 96.9085 16.0563 96.3339 16.0563C95.7592 16.0429 95.1779 16.0362 94.5899 16.0362C94.0286 16.0362 93.5008 16.0429 93.0063 16.0563C92.5119 16.0563 92.111 16.0697 91.8036 16.0966L91.9038 15.6942C92.3582 15.6673 92.7123 15.6137 92.9662 15.5332C93.2201 15.4527 93.4139 15.2917 93.5476 15.0503C93.6946 14.8088 93.8349 14.4467 93.9685 13.9638L96.6346 3.98391C96.7682 3.4876 96.8216 3.12543 96.7949 2.89739C96.7816 2.65594 96.668 2.49498 96.4541 2.41449C96.2537 2.3206 95.9263 2.26694 95.4719 2.25353L95.5722 1.85111C96.08 1.86453 96.6145 1.87794 97.1758 1.89136C97.7504 1.89136 98.3184 1.89806 98.8797 1.91148C99.4409 1.91148 99.9554 1.91148 100.423 1.91148C100.904 1.91148 101.298 1.91148 101.606 1.91148C102.207 1.91148 102.875 1.91148 103.61 1.91148C104.359 1.89806 105.034 1.87794 105.635 1.85112C105.461 2.34743 105.301 2.82362 105.154 3.27969C105.007 3.72234 104.893 4.09122 104.813 4.38632C104.72 4.72167 104.639 5.03019 104.573 5.31188C104.519 5.59357 104.472 5.84843 104.432 6.07646H103.971ZM98.9197 8.89336C99.334 8.89336 99.6815 8.81288 99.9621 8.65191C100.243 8.47753 100.477 8.26291 100.664 8.00805C100.864 7.73977 101.031 7.45808 101.165 7.16298C101.312 6.85446 101.439 6.57277 101.546 6.31791H101.987C101.76 7.02884 101.592 7.58551 101.486 7.98793C101.392 8.37693 101.298 8.74581 101.205 9.09457C101.125 9.44333 101.031 9.82562 100.924 10.2414C100.831 10.6573 100.71 11.2408 100.563 11.9919H100.102C100.143 11.6432 100.169 11.3078 100.183 10.9859C100.196 10.664 100.169 10.3756 100.102 10.1207C100.036 9.86586 99.902 9.66465 99.7015 9.5171C99.501 9.36955 99.1937 9.29577 98.7794 9.29577L98.9197 8.89336Z" fill="white"/>
<path d="M107.765 2.17305C107.818 1.74381 108.005 1.39505 108.326 1.12677C108.647 0.858495 109.014 0.724357 109.428 0.724357C109.816 0.724357 110.117 0.851788 110.33 1.10665C110.558 1.3481 110.644 1.64991 110.591 2.01208C110.538 2.42791 110.344 2.77667 110.01 3.05836C109.689 3.32663 109.321 3.46077 108.907 3.46077C108.52 3.46077 108.219 3.34005 108.005 3.0986C107.791 2.84374 107.711 2.53522 107.765 2.17305ZM107.103 7.44467C107.357 6.66667 107.27 6.27767 106.843 6.27767C106.549 6.27767 106.288 6.43193 106.061 6.74045C105.834 7.03555 105.6 7.51174 105.359 8.16902L105.038 9.01409H104.658L105.179 7.52515C105.379 6.97519 105.62 6.55265 105.9 6.25755C106.181 5.96245 106.482 5.75453 106.802 5.63381C107.137 5.51308 107.457 5.45272 107.765 5.45272C108.206 5.45272 108.54 5.53991 108.767 5.71429C108.994 5.88867 109.134 6.11671 109.188 6.3984C109.241 6.68008 109.241 6.9886 109.188 7.32395C109.134 7.64588 109.054 7.9611 108.947 8.26962L106.823 14.3863C106.689 14.7619 106.649 15.0503 106.702 15.2515C106.756 15.4527 106.896 15.5533 107.123 15.5533C107.364 15.5533 107.598 15.4259 107.825 15.171C108.052 14.9027 108.306 14.3997 108.587 13.662L108.907 12.837H109.288L108.767 14.3058C108.58 14.8424 108.346 15.2582 108.065 15.5533C107.785 15.8484 107.484 16.0563 107.163 16.1771C106.856 16.3112 106.542 16.3783 106.221 16.3783C105.646 16.3783 105.239 16.2508 104.998 15.996C104.771 15.7277 104.671 15.3722 104.698 14.9296C104.724 14.4735 104.831 13.9772 105.018 13.4406L107.103 7.44467Z" fill="white"/>
<path d="M112.928 16.0966H110.823L113.229 7.44467C113.282 7.27029 113.322 7.09591 113.349 6.92153C113.389 6.73374 113.383 6.57948 113.329 6.45876C113.276 6.33803 113.149 6.27767 112.948 6.27767C112.681 6.27767 112.434 6.41181 112.207 6.68009C111.993 6.94836 111.759 7.44467 111.505 8.16902L111.204 9.01409H110.823L111.325 7.52516C111.619 6.70691 111.979 6.15695 112.407 5.87526C112.848 5.59357 113.309 5.45272 113.79 5.45272C114.218 5.45272 114.532 5.53991 114.732 5.71429C114.933 5.88867 115.053 6.11671 115.093 6.3984C115.147 6.66667 115.147 6.96848 115.093 7.30383C115.053 7.62576 114.993 7.94769 114.913 8.26962L112.928 16.0966ZM113.75 12.173C114.231 10.8853 114.692 9.81221 115.133 8.95372C115.588 8.08183 116.029 7.39102 116.456 6.88129C116.884 6.37157 117.318 6.0094 117.759 5.79478C118.214 5.56674 118.688 5.45272 119.182 5.45272C119.824 5.45272 120.265 5.60028 120.505 5.89538C120.759 6.19048 120.873 6.57278 120.846 7.04226C120.833 7.49833 120.746 7.98123 120.586 8.49095L118.641 14.3863C118.508 14.7485 118.461 15.0369 118.501 15.2515C118.541 15.4527 118.688 15.5533 118.942 15.5533C119.169 15.5533 119.396 15.4259 119.623 15.171C119.864 14.9162 120.118 14.4131 120.385 13.662L120.686 12.837H121.067L120.566 14.3058C120.378 14.8692 120.138 15.2985 119.844 15.5936C119.563 15.8887 119.263 16.0899 118.942 16.1972C118.634 16.3179 118.334 16.3783 118.04 16.3783C117.706 16.3783 117.425 16.3246 117.198 16.2173C116.971 16.11 116.797 15.9624 116.677 15.7746C116.516 15.5198 116.456 15.1979 116.496 14.8089C116.536 14.4064 116.643 13.9504 116.817 13.4406L118.681 7.78673C118.748 7.58552 118.802 7.36419 118.842 7.12274C118.882 6.88129 118.875 6.67338 118.822 6.499C118.768 6.31121 118.601 6.21731 118.32 6.21731C118.026 6.21731 117.706 6.36486 117.358 6.65997C117.011 6.95507 116.643 7.3776 116.256 7.92757C115.882 8.46412 115.514 9.10128 115.153 9.83904C114.792 10.5768 114.445 11.3816 114.111 12.2535C113.777 13.112 113.469 14.0241 113.189 14.9899L113.75 12.173Z" fill="white"/>
<path d="M124.953 15.5936C125.247 15.5936 125.575 15.4192 125.936 15.0704C126.296 14.7217 126.664 14.2455 127.038 13.6419C127.412 13.0248 127.76 12.3139 128.08 11.5091C128.401 10.7042 128.668 9.84575 128.882 8.93361L128.521 11.1268C128.067 12.4011 127.599 13.4272 127.118 14.2052C126.65 14.9698 126.169 15.5265 125.675 15.8752C125.18 16.2106 124.673 16.3783 124.151 16.3783C123.483 16.3783 122.982 16.1569 122.648 15.7143C122.314 15.2582 122.147 14.6613 122.147 13.9235C122.147 13.2528 122.254 12.5352 122.468 11.7706C122.695 11.006 123.002 10.2482 123.39 9.49699C123.791 8.74581 124.245 8.06842 124.753 7.4648C125.261 6.86117 125.809 6.37828 126.397 6.0161C126.985 5.64052 127.573 5.45272 128.161 5.45272C128.615 5.45273 128.962 5.66735 129.203 6.09659C129.457 6.51242 129.517 7.12274 129.383 7.92757L129.163 8.0483C129.256 7.41785 129.216 6.91483 129.043 6.53924C128.882 6.15024 128.615 5.95574 128.241 5.95574C127.92 5.95574 127.579 6.12342 127.218 6.45876C126.858 6.78069 126.503 7.23005 126.156 7.80685C125.822 8.37023 125.508 9.00738 125.214 9.71831C124.933 10.4292 124.713 11.167 124.552 11.9316C124.392 12.6828 124.312 13.4205 124.312 14.1449C124.312 14.6814 124.365 15.057 124.472 15.2716C124.592 15.4862 124.753 15.5936 124.953 15.5936ZM129.744 5.73442C130.145 5.721 130.533 5.69417 130.907 5.65393C131.281 5.61369 131.628 5.54662 131.949 5.45273L129.403 14.3662C129.363 14.5137 129.323 14.6814 129.283 14.8692C129.256 15.0436 129.263 15.1979 129.303 15.332C129.357 15.4661 129.484 15.5332 129.684 15.5332C129.925 15.5332 130.165 15.4058 130.406 15.1509C130.646 14.8826 130.887 14.3796 131.127 13.6419L131.408 12.8169H131.789L131.288 14.2857C131.101 14.8357 130.873 15.2582 130.606 15.5533C130.339 15.8484 130.052 16.0563 129.744 16.1771C129.45 16.3112 129.163 16.3783 128.882 16.3783C128.294 16.3783 127.88 16.1905 127.639 15.8149C127.466 15.5198 127.406 15.1643 127.459 14.7485C127.526 14.3192 127.619 13.8766 127.74 13.4205L129.744 5.73442Z" fill="white"/>
<path d="M135.44 16.0966H133.335L135.741 7.44468C135.794 7.2703 135.834 7.09592 135.861 6.92154C135.901 6.73374 135.895 6.57949 135.841 6.45876C135.788 6.33804 135.661 6.27768 135.46 6.27768C135.193 6.27768 134.946 6.41181 134.719 6.68009C134.505 6.94837 134.271 7.44468 134.017 8.16902L133.716 9.01409H133.335L133.837 7.52516C134.131 6.70692 134.491 6.15695 134.919 5.87526C135.36 5.59357 135.821 5.45273 136.302 5.45273C136.73 5.45273 137.044 5.53992 137.244 5.7143C137.445 5.88868 137.565 6.11671 137.605 6.3984C137.659 6.66668 137.659 6.96849 137.605 7.30383C137.565 7.62576 137.505 7.94769 137.425 8.26962L135.44 16.0966ZM136.262 12.173C136.743 10.8853 137.204 9.81221 137.645 8.95373C138.1 8.08183 138.541 7.39102 138.968 6.8813C139.396 6.37157 139.83 6.0094 140.271 5.79478C140.726 5.56674 141.2 5.45273 141.694 5.45273C142.336 5.45273 142.777 5.60028 143.017 5.89538C143.271 6.19049 143.385 6.57278 143.358 7.04226C143.345 7.49833 143.258 7.98123 143.098 8.49095L141.153 14.3863C141.02 14.7485 140.973 15.0369 141.013 15.2515C141.053 15.4527 141.2 15.5533 141.454 15.5533C141.681 15.5533 141.908 15.4259 142.135 15.171C142.376 14.9162 142.63 14.4131 142.897 13.662L143.198 12.837H143.579L143.078 14.3058C142.89 14.8692 142.65 15.2985 142.356 15.5936C142.075 15.8887 141.775 16.0899 141.454 16.1972C141.146 16.3179 140.846 16.3783 140.552 16.3783C140.218 16.3783 139.937 16.3246 139.71 16.2173C139.483 16.11 139.309 15.9624 139.189 15.7746C139.028 15.5198 138.968 15.1979 139.008 14.8089C139.048 14.4064 139.155 13.9504 139.329 13.4406L141.193 7.78673C141.26 7.58552 141.314 7.36419 141.354 7.12275C141.394 6.8813 141.387 6.67338 141.334 6.499C141.28 6.31121 141.113 6.21731 140.832 6.21731C140.538 6.21731 140.218 6.36487 139.87 6.65997C139.523 6.95507 139.155 7.37761 138.768 7.92757C138.394 8.46413 138.026 9.10128 137.665 9.83904C137.304 10.5768 136.957 11.3816 136.623 12.2535C136.289 13.112 135.981 14.0241 135.701 14.9899L136.262 12.173Z" fill="white"/>
<path d="M151.254 5.85514C150.746 5.85514 150.245 6.06306 149.75 6.47889C149.256 6.89471 148.808 7.4648 148.407 8.18915C148.006 8.91349 147.686 9.73173 147.445 10.6439C147.205 11.556 147.084 12.5084 147.084 13.501C147.084 14.1851 147.218 14.6814 147.485 14.9899C147.753 15.2985 148.1 15.4527 148.528 15.4527C148.982 15.4527 149.45 15.3119 149.931 15.0302C150.425 14.7485 150.92 14.2455 151.414 13.5211L151.815 13.6821C151.548 14.1248 151.207 14.554 150.793 14.9698C150.379 15.3856 149.904 15.7277 149.37 15.996C148.848 16.2508 148.28 16.3783 147.666 16.3783C146.824 16.3783 146.142 16.1301 145.621 15.6338C145.1 15.1375 144.839 14.3863 144.839 13.3803C144.839 12.7498 144.933 12.0724 145.12 11.3481C145.307 10.6237 145.574 9.91282 145.922 9.2153C146.283 8.51778 146.724 7.88733 147.245 7.32395C147.766 6.76057 148.354 6.31121 149.009 5.97587C149.664 5.62711 150.379 5.45273 151.154 5.45273C151.782 5.45273 152.31 5.6137 152.737 5.93563C153.178 6.25756 153.399 6.69351 153.399 7.24347C153.399 7.52516 153.332 7.80685 153.198 8.08854C153.065 8.37023 152.878 8.60497 152.637 8.79277C152.396 8.96714 152.116 9.05433 151.795 9.05433C151.501 9.05433 151.274 8.96714 151.114 8.79277C150.953 8.61839 150.873 8.40377 150.873 8.1489C150.873 7.70625 151.033 7.33066 151.354 7.02214C151.688 6.70021 152.062 6.4923 152.477 6.3984C152.356 6.23744 152.196 6.11001 151.996 6.01611C151.808 5.9088 151.561 5.85514 151.254 5.85514Z" fill="white"/>
<path d="M157.115 2.17306C157.168 1.74381 157.355 1.39506 157.676 1.12678C157.997 0.858503 158.364 0.724365 158.779 0.724365C159.166 0.724365 159.467 0.851796 159.681 1.10666C159.908 1.34811 159.995 1.64992 159.941 2.01209C159.888 2.42792 159.694 2.77668 159.36 3.05837C159.039 3.32664 158.672 3.46078 158.257 3.46078C157.87 3.46078 157.569 3.34006 157.355 3.09861C157.142 2.84375 157.061 2.53523 157.115 2.17306ZM156.453 7.44468C156.707 6.66668 156.62 6.27768 156.193 6.27768C155.899 6.27768 155.638 6.43194 155.411 6.74046C155.184 7.03556 154.95 7.51175 154.709 8.16902L154.389 9.01409H154.008L154.529 7.52516C154.729 6.9752 154.97 6.55266 155.251 6.25756C155.531 5.96245 155.832 5.75454 156.153 5.63382C156.487 5.51309 156.807 5.45273 157.115 5.45273C157.556 5.45273 157.89 5.53992 158.117 5.7143C158.344 5.88868 158.485 6.11671 158.538 6.3984C158.591 6.68009 158.591 6.98861 158.538 7.32396C158.485 7.64589 158.404 7.96111 158.297 8.26963L156.173 14.3863C156.039 14.7619 155.999 15.0503 156.052 15.2515C156.106 15.4527 156.246 15.5533 156.473 15.5533C156.714 15.5533 156.948 15.4259 157.175 15.171C157.402 14.9028 157.656 14.3997 157.937 13.662L158.257 12.837H158.638L158.117 14.3058C157.93 14.8424 157.696 15.2582 157.415 15.5533C157.135 15.8484 156.834 16.0563 156.513 16.1771C156.206 16.3112 155.892 16.3783 155.571 16.3783C154.997 16.3783 154.589 16.2508 154.349 15.996C154.121 15.7277 154.021 15.3722 154.048 14.9296C154.075 14.4735 154.181 13.9772 154.369 13.4406L156.453 7.44468Z" fill="white"/>
<path d="M162.278 16.0966H160.174L162.579 7.44468C162.633 7.2703 162.673 7.09592 162.699 6.92154C162.739 6.73375 162.733 6.57949 162.679 6.45877C162.626 6.33804 162.499 6.27768 162.298 6.27768C162.031 6.27768 161.784 6.41182 161.557 6.68009C161.343 6.94837 161.109 7.44468 160.855 8.16903L160.554 9.0141H160.174L160.675 7.52516C160.969 6.70692 161.33 6.15696 161.757 5.87527C162.198 5.59358 162.659 5.45273 163.14 5.45273C163.568 5.45273 163.882 5.53992 164.082 5.7143C164.283 5.88868 164.403 6.11671 164.443 6.3984C164.497 6.66668 164.497 6.96849 164.443 7.30384C164.403 7.62577 164.343 7.9477 164.263 8.26963L162.278 16.0966ZM163.1 12.173C163.581 10.8853 164.042 9.81222 164.483 8.95373C164.938 8.08184 165.379 7.39103 165.806 6.8813C166.234 6.37158 166.668 6.0094 167.109 5.79478C167.564 5.56675 168.038 5.45273 168.533 5.45273C169.174 5.45273 169.615 5.60028 169.856 5.89539C170.109 6.19049 170.223 6.57279 170.196 7.04227C170.183 7.49834 170.096 7.98123 169.936 8.49096L167.991 14.3863C167.858 14.7485 167.811 15.0369 167.851 15.2515C167.891 15.4527 168.038 15.5533 168.292 15.5533C168.519 15.5533 168.746 15.4259 168.974 15.171C169.214 14.9162 169.468 14.4132 169.735 13.662L170.036 12.837H170.417L169.916 14.3058C169.729 14.8692 169.488 15.2985 169.194 15.5936C168.913 15.8887 168.613 16.0899 168.292 16.1972C167.985 16.3179 167.684 16.3783 167.39 16.3783C167.056 16.3783 166.775 16.3246 166.548 16.2173C166.321 16.11 166.147 15.9624 166.027 15.7747C165.867 15.5198 165.806 15.1979 165.846 14.8089C165.887 14.4064 165.993 13.9504 166.167 13.4407L168.031 7.78673C168.098 7.58553 168.152 7.3642 168.192 7.12275C168.232 6.8813 168.225 6.67339 168.172 6.49901C168.118 6.31121 167.951 6.21732 167.671 6.21732C167.377 6.21732 167.056 6.36487 166.708 6.65997C166.361 6.95508 165.993 7.37761 165.606 7.92758C165.232 8.46413 164.864 9.10129 164.503 9.83904C164.143 10.5768 163.795 11.3816 163.461 12.2535C163.127 13.112 162.82 14.0242 162.539 14.9899L163.1 12.173Z" fill="white"/>
<path d="M175.747 11.5694L176.388 11.5493C175.894 11.8042 175.446 12.0389 175.045 12.2535C174.644 12.4547 174.324 12.6492 174.083 12.837C173.842 13.0114 173.722 13.1791 173.722 13.34C173.722 13.4742 173.809 13.5949 173.983 13.7022C174.17 13.7961 174.45 13.8967 174.825 14.004L176.368 14.4467C176.782 14.554 177.157 14.6881 177.491 14.8491C177.838 14.9967 178.112 15.1912 178.313 15.4326C178.526 15.6606 178.633 15.9624 178.633 16.338C178.633 16.727 178.506 17.1294 178.252 17.5453C177.999 17.9745 177.624 18.3702 177.13 18.7324C176.635 19.108 176.021 19.4098 175.286 19.6378C174.551 19.8793 173.702 20 172.74 20C172.045 20 171.45 19.9329 170.956 19.7988C170.448 19.6781 170.067 19.5037 169.813 19.2757C169.546 19.0476 169.412 18.7793 169.412 18.4708C169.412 18.2428 169.493 18.0148 169.653 17.7867C169.8 17.5587 170.014 17.3441 170.294 17.1429C170.562 16.9551 170.889 16.774 171.277 16.5996C171.651 16.4386 172.065 16.3112 172.519 16.2173L172.64 16.5191C172.159 16.774 171.824 17.049 171.637 17.3441C171.45 17.6526 171.357 17.9611 171.357 18.2696C171.357 18.7525 171.531 19.1013 171.878 19.3159C172.225 19.5439 172.66 19.6579 173.181 19.6579C173.595 19.6579 174.023 19.5909 174.464 19.4567C174.918 19.3226 175.339 19.1415 175.727 18.9135C176.114 18.6989 176.422 18.444 176.649 18.1489C176.876 17.8672 176.99 17.5654 176.99 17.2435C176.99 17.0288 176.916 16.8813 176.769 16.8008C176.622 16.7203 176.402 16.6466 176.108 16.5795L173.101 15.7747C172.78 15.6942 172.513 15.5533 172.299 15.3521C172.085 15.1375 171.978 14.8625 171.978 14.5272C171.978 14.2321 172.092 13.937 172.319 13.6419C172.559 13.3468 172.954 13.0382 173.502 12.7163C174.05 12.381 174.798 11.9987 175.747 11.5694ZM176.729 5.81491C176.355 5.81491 176.034 5.92892 175.767 6.15696C175.513 6.38499 175.292 6.6801 175.105 7.04227C174.932 7.40444 174.791 7.79344 174.684 8.20927C174.591 8.61168 174.524 8.99398 174.484 9.35615C174.444 9.71832 174.424 10.0134 174.424 10.2415C174.424 10.6707 174.504 10.9792 174.664 11.167C174.838 11.3414 175.065 11.4286 175.346 11.4286C175.787 11.4286 176.148 11.281 176.428 10.9859C176.722 10.6908 176.949 10.3219 177.11 9.87929C177.284 9.42322 177.404 8.96044 177.471 8.49096C177.537 8.02148 177.571 7.60565 177.571 7.24348C177.571 6.81423 177.517 6.47218 177.411 6.21732C177.304 5.94904 177.076 5.81491 176.729 5.81491ZM176.889 5.45273C177.705 5.45273 178.373 5.63382 178.894 5.99599C179.415 6.34475 179.676 6.92155 179.676 7.72637C179.676 8.37024 179.482 9.00739 179.094 9.63784C178.72 10.2549 178.192 10.7713 177.511 11.1871C176.829 11.5895 176.021 11.7908 175.085 11.7908C174.31 11.7908 173.662 11.6164 173.141 11.2676C172.62 10.9054 172.359 10.3421 172.359 9.57748C172.359 9.18848 172.439 8.75923 172.6 8.28975C172.773 7.80686 173.041 7.35749 173.401 6.94167C173.762 6.51242 174.23 6.15696 174.805 5.87527C175.379 5.59358 176.074 5.45273 176.889 5.45273ZM178.373 6.49901L177.992 6.35817C178.192 5.88868 178.513 5.47956 178.954 5.1308C179.408 4.78204 179.889 4.60766 180.397 4.60767C180.771 4.60767 181.065 4.71498 181.279 4.9296C181.493 5.1308 181.6 5.43261 181.6 5.83503C181.6 6.21061 181.506 6.4923 181.319 6.6801C181.132 6.86789 180.925 6.96179 180.698 6.96179C180.484 6.96179 180.277 6.88801 180.077 6.74046C179.889 6.59291 179.776 6.35817 179.736 6.03624C179.696 5.7143 179.783 5.31189 179.996 4.82899L180.217 4.88935C179.669 5.10398 179.275 5.33201 179.034 5.57346C178.794 5.80149 178.573 6.11001 178.373 6.49901Z" fill="white"/>
<path d="M33.6867 7.04225C34.1436 7.04225 34.5268 7.19019 34.8363 7.48608C35.1459 7.76718 35.3006 8.12225 35.3006 8.5513C35.3006 8.98034 35.1459 9.34281 34.8363 9.6387C34.5268 9.9198 34.1436 10.0604 33.6867 10.0604C33.2298 10.0604 32.8465 9.9198 32.537 9.6387C32.2275 9.34281 32.0727 8.98034 32.0727 8.5513C32.0727 8.12225 32.2275 7.76718 32.537 7.48608C32.8465 7.19019 33.2298 7.04225 33.6867 7.04225Z" fill="white"/>
<path d="M19.3472 16.0288C20.1295 16.0306 20.8732 16.038 21.5783 16.0511C22.3965 16.0662 23.0585 16.0814 23.5643 16.0966V15.5736C22.88 15.5736 22.3593 15.5282 22.0023 15.4372C21.6452 15.3463 21.3998 15.1493 21.2659 14.8461C21.1469 14.5278 21.0874 14.0655 21.0874 13.4593V8.23016H21.3105C21.8755 8.2303 22.3744 8.36671 22.8056 8.6394C23.237 8.89706 23.5866 9.25325 23.8544 9.70795C24.137 10.1627 24.323 10.6704 24.4122 11.2312H24.9255C24.866 10.3673 24.8288 9.70795 24.8139 9.25325C24.799 8.79854 24.7916 8.38173 24.7916 8.00281C24.7916 7.62389 24.7841 7.20708 24.7693 6.75237C24.7693 6.29767 24.799 5.63834 24.8585 4.7744H24.3453C24.2858 5.10785 24.1668 5.44888 23.9883 5.79749C23.8246 6.1461 23.6089 6.47197 23.3411 6.77511C23.0882 7.07824 22.7907 7.32075 22.4485 7.50263C22.1064 7.68452 21.727 7.77546 21.3105 7.77546H21.0874V1.95523C21.0874 1.53084 21.1171 1.22013 21.1766 1.02309C21.251 0.826047 21.3849 0.697214 21.5783 0.636588C21.7717 0.560803 22.0618 0.522911 22.4486 0.522911L22.7386 0.522911C23.2742 0.522911 23.8023 0.67448 24.323 0.977617C24.8585 1.2656 25.3495 1.77335 25.7957 2.50088C26.242 3.21325 26.5916 4.19844 26.8445 5.45646H27.3578C27.3429 5.25942 27.328 5.01691 27.3131 4.72893C27.2983 4.44095 27.2908 4.13782 27.2908 3.81952C27.2908 3.4406 27.2983 2.90254 27.3131 2.20532C27.3429 1.49295 27.3875 0.757843 27.447 2.22211e-06C26.7627 0.0303154 25.9817 0.0530499 25.104 0.0682064L19.2352 0.0682054C18.5212 0.0530486 17.7922 0.0454699 17.0484 0.0454697C16.3195 0.030313 15.6277 0.0151568 14.9732 0V0.454705C15.4194 0.469861 15.7542 0.530488 15.9773 0.636587C16.2153 0.727527 16.3715 0.909409 16.4459 1.18223C16.5203 1.4399 16.5575 1.84913 16.5575 2.40994L16.5575 8.77331L19.3472 16.0288Z" fill="white"/>
<path d="M9.34982 1.66559e-06L14.75 14.1868C14.9582 14.7021 15.1814 15.0735 15.4194 15.3008C15.6574 15.513 15.8731 15.6267 16.0665 15.6419V16.0966C15.531 16.0662 14.9062 16.0511 14.1921 16.0511C13.478 16.0359 12.7491 16.0284 12.0053 16.0284C11.2466 16.0284 10.5325 16.0359 9.86306 16.0511C9.19362 16.0511 8.65807 16.0662 8.2564 16.0966V15.6419C9.0151 15.6115 9.49115 15.4827 9.68454 15.2554C9.89281 15.0128 9.84818 14.5051 9.55065 13.7321L5.98032 3.66038L6.42661 2.86464L3.34719 11.0266C2.97528 12.0118 2.7447 12.8075 2.65544 13.4138C2.58106 14.0049 2.61825 14.4596 2.76701 14.7779C2.91578 15.0962 3.1538 15.316 3.48108 15.4372C3.80836 15.5585 4.19515 15.6267 4.64144 15.6419V16.0966C4.09101 16.0662 3.59265 16.0511 3.14636 16.0511C2.71494 16.0359 2.2389 16.0284 1.71823 16.0284C1.43557 16.0284 1.13061 16.0359 0.803325 16.0511C0.490921 16.0511 0.223146 16.0662 0 16.0966V15.6419C0.342157 15.5812 0.676876 15.3615 1.00416 14.9825C1.34631 14.5885 1.69591 13.9216 2.05294 12.9818L7.00679 1.2482e-06C7.36383 0.0303146 7.75061 0.0454708 8.16715 0.0454708C8.59857 0.0454709 8.99279 0.0303149 9.34982 1.66559e-06ZM10.1308 9.54881V10.0035L3.48108 10.0035L3.70423 9.54881L10.1308 9.54881Z" fill="white"/>
</g>
<defs>
<clipPath id="clip0_523_655">
<rect width="182" height="17" fill="white"/>
</clipPath>
</defs>
</svg>
