<svg width="112" height="48" viewBox="0 0 112 48" fill="none" xmlns="http://www.w3.org/2000/svg">
<path fill-rule="evenodd" clip-rule="evenodd" d="M18.2785 47.7966C20.0666 47.7966 21.7885 47.5978 23.5104 47.0674C25.2323 46.6034 26.8879 45.8742 28.4774 44.8135C30.0668 43.7528 31.3251 42.2944 32.3185 40.3056C33.2457 38.3831 33.7755 36.1292 33.7755 33.4775C33.7755 29.8315 32.5834 26.9146 30.1992 24.7933C27.8151 22.6719 24.1726 20.7494 19.3381 19.0258C14.3049 17.1697 10.7949 15.6449 8.94057 14.3854C7.08623 13.1921 6.15906 11.4022 6.15906 9.14831C6.15906 6.62921 6.95377 4.64045 8.67566 3.18202C10.3975 1.7236 12.5168 0.994381 15.0334 0.994381C18.0798 0.994381 20.9275 2.25393 23.5766 4.77304C26.1594 7.29214 28.8085 11.1371 31.5238 16.3079H31.6562L30.7953 0.662921C29.8019 0.92809 28.8085 0.994381 27.8151 0.994381C26.623 0.994381 24.8349 0.861798 22.3845 0.530338C19.9342 0.198878 17.7487 0 15.7619 0C13.9075 0 12.1194 0.33146 10.3313 0.861799C8.54321 1.39214 6.88755 2.18764 5.29811 3.24832C3.70868 4.30899 2.38415 5.83371 1.45698 7.75618C0.463585 9.67865 0 11.8663 0 14.2528C0 17.6337 0.92717 20.418 2.84774 22.6056C4.7683 24.8596 8.21208 26.782 13.2453 28.4393C15.2321 29.1685 16.8215 29.7652 18.0136 30.2292C19.2057 30.6933 20.5302 31.2236 21.8547 31.8865C23.1792 32.5494 24.2389 33.2124 24.9674 33.809C25.6958 34.4719 26.2919 35.2011 26.8217 35.9966C27.2853 36.7921 27.5502 37.7202 27.5502 38.6483C27.5502 41.3 26.7555 43.2888 25.2323 44.6809C23.6428 46.1393 21.5898 46.8023 19.007 46.8023C17.0864 46.8023 15.2983 46.4045 13.5764 45.5427C11.8545 44.7472 10.3975 43.7528 9.20547 42.6258C8.0134 41.5652 6.82132 40.1067 5.69547 38.3169C4.5034 36.527 3.64245 35.0022 3.04642 33.809C2.38415 32.6157 1.72189 31.091 0.993396 29.3674H0.860943V47.6641C2.38415 46.8023 4.30472 46.4045 6.68887 46.4045C7.74849 46.4045 9.5366 46.6697 12.1857 47.1337C14.8347 47.5978 16.8215 47.7966 18.2785 47.7966ZM69.0934 37.1955L60.7489 23.9371C63.994 23.2742 66.5106 22.0146 68.2325 20.1584C69.9543 18.3022 70.8815 16.1146 70.8815 13.4629C70.8815 9.55169 69.4245 6.50225 66.5106 4.31461C63.5966 2.12697 60.2853 1 56.5766 1H33V1.13259C34.5232 1.8618 35.7153 2.92247 36.6425 4.31461C37.5034 5.77303 37.967 7.36405 37.967 9.08764V39.3169C37.967 41.1067 37.5034 42.6978 36.6425 44.0899C35.7153 45.5483 34.5232 46.609 33 47.2719V47.4045H53.2653V47.2719C51.7421 46.609 50.55 45.5483 49.6891 44.0899C48.7619 42.6978 48.3645 41.1067 48.3645 39.3169V24.2685C49.1593 24.4011 49.8877 24.7326 50.4175 25.2629C50.9474 25.7933 52.2057 28.0472 54.3249 31.9584L63.3979 47.4045H77.2392V47.2719C75.3849 46.3438 72.6696 42.9629 69.0934 37.1955ZM49.5566 1.92809C52.4706 1.92809 54.9872 3.12135 57.1064 5.44158C59.1594 7.82809 60.2191 10.7449 60.2191 14.1921C60.2191 17.5067 59.4243 19.8933 57.8349 21.418C56.2455 23.009 54.3249 23.7382 52.007 23.7382C50.55 23.7382 49.3579 23.6719 48.3645 23.473V1.92809H49.5566ZM74.1722 7.31638C73.8477 6.20687 72.9205 4.77376 71.8079 3.71049L70 2H79.7815H89.5166L87.7086 3.61803C84.9272 6.11441 84.7881 7.17769 84.9735 23.774C85.1126 36.4871 85.2053 38.5212 85.947 40.1392C87.755 44.115 90.5364 45.9179 94.9404 45.9179C99.4834 45.8717 101.682 43.8838 103.536 39.9543C104.464 37.9665 104.51 36.9957 104.649 22.8495C104.742 12.1705 104.649 7.5013 104.232 6.53048C104.157 6.34405 104.098 6.11085 104.032 5.85243C103.852 5.14961 103.626 4.26025 102.914 3.61803L101.106 2H106.53H112L110.609 2.92459C109.821 3.43311 108.662 4.72753 108.06 5.79081C106.903 7.77488 106.901 7.91683 106.67 22.7181L106.669 22.8032C106.437 37.273 106.391 37.9202 105.371 40.1392C103.285 44.6235 100.132 46.935 94.9404 47.7671C88.3576 48.7841 80.755 46.3802 77.6026 42.312C74.9139 38.7986 74.6821 37.0881 74.6821 22.3872C74.6821 14.1583 74.4967 8.47211 74.1722 7.31638Z" fill="white"/>
</svg>
