<svg width="14" height="14" viewBox="0 0 14 14" fill="none" xmlns="http://www.w3.org/2000/svg">
  <g clip-path="url(#clip0_267_1480)">
    <path d="M11.8516 2.5491C10.944 2.1325 9.98612 1.83544 9.00204 1.66535C8.99306 1.6636 8.98376 1.66475 8.97548 1.66863C8.96719 1.6725 8.96036 1.67891 8.95595 1.68693C8.83345 1.90568 8.69695 2.19093 8.60129 2.4161C7.54045 2.25497 6.46137 2.25497 5.40054 2.4161C5.29407 2.16661 5.17391 1.92318 5.04062 1.68693C5.03602 1.67909 5.02916 1.67284 5.02093 1.66898C5.0127 1.66513 5.0035 1.66386 4.99454 1.66535C4.01036 1.83509 3.05246 2.13216 2.14495 2.5491C2.13727 2.55232 2.13076 2.55782 2.12629 2.56485C0.310953 5.27676 -0.18663 7.9216 0.0577862 10.5332C0.0583799 10.5397 0.0602899 10.546 0.0633993 10.5517C0.0665086 10.5574 0.070752 10.5624 0.0758696 10.5664C1.13263 11.3494 2.31477 11.9471 3.57179 12.3339C3.58065 12.3365 3.59008 12.3363 3.59883 12.3334C3.60758 12.3305 3.61524 12.325 3.62079 12.3176C3.89102 11.9504 4.13024 11.5613 4.33595 11.1544C4.33882 11.1489 4.34048 11.1427 4.34081 11.1365C4.34114 11.1302 4.34015 11.124 4.33789 11.1181C4.33563 11.1123 4.33216 11.107 4.3277 11.1026C4.32324 11.0982 4.31791 11.0948 4.31204 11.0926C3.93487 10.9483 3.56972 10.7743 3.22004 10.5723C3.21363 10.5686 3.20823 10.5633 3.20433 10.557C3.20043 10.5507 3.19815 10.5436 3.19769 10.5362C3.19723 10.5288 3.1986 10.5214 3.20169 10.5147C3.20477 10.5079 3.20947 10.5021 3.21537 10.4976C3.28901 10.4425 3.36136 10.3857 3.43237 10.3273C3.43858 10.3222 3.44607 10.319 3.454 10.318C3.46193 10.317 3.46999 10.3181 3.47729 10.3214C5.76862 11.3673 8.24895 11.3673 10.5135 10.3214C10.5208 10.318 10.529 10.3168 10.537 10.3178C10.5451 10.3188 10.5527 10.3221 10.559 10.3273C10.629 10.3844 10.7025 10.4428 10.7765 10.4976C10.7824 10.502 10.787 10.5078 10.7901 10.5144C10.7932 10.521 10.7947 10.5283 10.7943 10.5356C10.794 10.5429 10.7919 10.55 10.7882 10.5563C10.7844 10.5626 10.7793 10.5678 10.773 10.5717C10.4241 10.7756 10.0587 10.9496 9.68045 11.092C9.67457 11.0943 9.66922 11.0977 9.66476 11.1022C9.6603 11.1067 9.65683 11.112 9.65457 11.1179C9.65232 11.1238 9.65133 11.1301 9.65167 11.1364C9.652 11.1427 9.65366 11.1488 9.65654 11.1544C9.86654 11.5616 10.1069 11.9489 10.3711 12.317C10.3766 12.3245 10.3842 12.3301 10.393 12.3331C10.4018 12.336 10.4113 12.3361 10.4201 12.3333C11.6792 11.9477 12.8633 11.3499 13.9213 10.5658C13.9264 10.5622 13.9308 10.5575 13.934 10.5521C13.9372 10.5467 13.9392 10.5406 13.94 10.5343C14.2316 7.51443 13.4511 4.89118 11.8697 2.56601C11.866 2.55817 11.8596 2.55195 11.8516 2.54851V2.5491ZM4.67837 8.94243C3.98829 8.94243 3.42012 8.30951 3.42012 7.53135C3.42012 6.75376 3.97779 6.12026 4.67837 6.12026C5.3842 6.12026 5.9477 6.7596 5.93662 7.53193C5.93662 8.30951 5.37895 8.94243 4.67837 8.94243ZM9.33045 8.94243C8.64037 8.94243 8.0722 8.30951 8.0722 7.53135C8.0722 6.75376 8.62929 6.12026 9.33045 6.12026C10.0363 6.12026 10.5998 6.7596 10.5887 7.53193C10.5887 8.30951 10.0369 8.94243 9.33045 8.94243Z" fill="black"/>
  </g>
  <defs>
    <clipPath id="clip0_267_1480">
      <rect width="14" height="14" fill="white"/>
    </clipPath>
  </defs>
</svg>
