<svg width="17" height="16" viewBox="0 0 17 16" fill="none" xmlns="http://www.w3.org/2000/svg">
<path d="M14.1666 4.85173L8.49998 7.99987M8.49998 7.99987L2.83331 4.85173M8.49998 7.99987L8.5 14.3332M9.83333 13.9258L9.01802 14.3788C8.82895 14.4838 8.73442 14.5363 8.6343 14.5569C8.5457 14.5751 8.45431 14.5751 8.3657 14.5569C8.26559 14.5363 8.17105 14.4838 7.98198 14.3788L3.04865 11.638C2.84897 11.5271 2.74912 11.4716 2.67642 11.3927C2.61211 11.3229 2.56343 11.2402 2.53366 11.1501C2.5 11.0482 2.5 10.934 2.5 10.7056V5.29419C2.5 5.06576 2.5 4.95155 2.53366 4.84968C2.56343 4.75957 2.61211 4.67684 2.67642 4.60705C2.74912 4.52816 2.84897 4.47269 3.04865 4.36176L7.98198 1.62102C8.17105 1.51598 8.26559 1.46346 8.3657 1.44287C8.45431 1.42464 8.5457 1.42464 8.6343 1.44287C8.73442 1.46346 8.82895 1.51598 9.01802 1.62102L13.9514 4.36176C14.151 4.47269 14.2509 4.52816 14.3236 4.60705C14.3879 4.67684 14.4366 4.75956 14.4663 4.84968C14.5 4.95155 14.5 5.06576 14.5 5.29419L14.5 8.33323M5.5 2.99989L11.5 6.33323M13.1667 13.9999V9.99989M11.1667 11.9999H15.1667" stroke="black" stroke-linecap="round" stroke-linejoin="round"/>
</svg>
